<svg xmlns="http://www.w3.org/2000/svg" viewBox="0 0 20 20" xml:space="preserve" width="20" height="20">
  <g stroke-width="0"/>
  <g stroke-linecap="round" stroke-linejoin="round"/>
  <path d="M18.785 2.217H1.215C.545 2.217 0 2.762 0 3.432V16.57c0 .67.545 1.215 1.215 1.215h17.571c.67 0 1.215-.545 1.215-1.215V3.432c0-.67-.545-1.215-1.215-1.215m-9.262 11.38c0 .494-1.737.895-3.897.905-2.16-.01-3.897-.411-3.897-.905V11.71c0-.658.532-1.19 1.19-1.19h1.261c.283 0 .383-.241.328-.488-.065-.291-.33-.47-.518-.68-.455-.512-.804-1.119-.804-1.822a2.437 2.437 0 0 1 2.437-2.437h.008A2.437 2.437 0 0 1 8.069 7.53c0 .702-.348 1.31-.804 1.822-.188.211-.455.391-.518.68-.055.249.043.488.328.488h1.261c.658 0 1.19.532 1.19 1.19v1.887zm7.872-.591h-5.344a.81.81 0 1 1 0-1.62h5.344a.81.81 0 1 1 0 1.62m0-4.798h-5.344a.81.81 0 1 1 0-1.62h5.344a.81.81 0 1 1 0 1.62"/>
</svg>
